<?xml version="1.0" standalone="no"?>
<!DOCTYPE svg PUBLIC "-//W3C//DTD SVG 20010904//EN"
 "http://www.w3.org/TR/2001/REC-SVG-20010904/DTD/svg10.dtd">
<svg version="1.0" xmlns="http://www.w3.org/2000/svg"
 width="549.000000pt" height="549.000000pt" viewBox="0 0 549.000000 549.000000"
 preserveAspectRatio="xMidYMid meet">
<metadata>
Created by potrace 1.14, written by Peter Selinger 2001-2017
</metadata>
<g transform="translate(0.000000,549.000000) scale(0.100000,-0.100000)"
fill="#000000" stroke="none">
<path d="M216 5421 c-2 -3 23 -7 55 -8 32 -1 59 1 59 5 0 9 -109 12 -114 3z"/>
<path d="M340 5419 c0 -4 5 -11 12 -15 7 -5 8 -3 3 6 -6 10 -4 11 6 4 8 -5 23
-9 34 -10 50 -3 183 -15 210 -19 17 -3 55 -7 85 -9 30 -3 69 -7 85 -10 17 -3
55 -8 85 -10 30 -3 64 -7 75 -9 11 -3 45 -8 75 -12 30 -5 62 -9 70 -11 8 -1
38 -5 65 -8 28 -4 58 -9 67 -12 20 -6 51 -12 97 -20 18 -3 43 -8 55 -10 11 -3
30 -7 41 -9 11 -3 31 -7 45 -11 14 -3 34 -7 45 -9 11 -2 52 -13 90 -25 39 -11
77 -22 85 -24 26 -4 75 -19 85 -25 6 -3 20 -7 33 -9 12 -1 33 -7 45 -11 12 -5
25 -9 29 -10 4 -1 23 -8 43 -17 19 -8 35 -11 35 -7 0 5 4 3 8 -2 4 -6 39 -21
77 -35 39 -13 81 -30 95 -37 14 -7 28 -13 32 -13 11 0 288 -138 323 -160 17
-11 37 -23 45 -27 8 -3 34 -19 57 -35 23 -15 44 -28 48 -28 3 0 15 -9 27 -20
12 -11 28 -20 35 -20 7 0 13 -4 13 -10 0 -5 12 -16 28 -24 15 -8 37 -24 50
-36 12 -11 22 -18 22 -14 0 4 9 -3 20 -16 11 -13 20 -20 20 -16 0 4 11 -4 24
-18 13 -15 29 -26 35 -26 7 0 9 -4 6 -10 -3 -5 0 -10 7 -10 7 0 46 -32 85 -70
40 -39 77 -70 83 -70 5 0 10 -3 10 -7 0 -13 68 -82 74 -76 3 4 6 1 6 -6 0 -17
46 -72 54 -64 3 4 6 0 6 -8 0 -8 9 -21 20 -29 11 -8 20 -18 20 -22 0 -4 8 -16
18 -26 36 -38 62 -72 62 -82 0 -6 5 -10 10 -10 6 0 10 -7 10 -15 0 -8 5 -15
10 -15 6 0 10 -7 10 -16 0 -8 5 -12 10 -9 6 3 10 2 10 -4 0 -6 24 -48 54 -94
30 -45 60 -96 68 -112 7 -17 18 -34 25 -38 7 -4 13 -16 13 -26 0 -21 22 -71
33 -71 4 0 7 -7 7 -15 0 -8 9 -30 20 -50 11 -19 17 -35 14 -35 -4 0 1 -11 10
-25 9 -14 14 -30 11 -35 -3 -6 -1 -10 6 -10 7 0 10 -3 6 -6 -3 -4 1 -20 9 -36
8 -16 12 -33 9 -38 -3 -6 -2 -10 2 -10 5 0 15 -21 22 -47 7 -27 15 -55 18 -63
4 -8 5 -19 4 -24 -1 -4 2 -13 7 -20 5 -6 8 -19 7 -28 -2 -10 0 -18 4 -18 4 0
8 -6 9 -12 6 -44 9 -66 15 -93 11 -48 26 -166 30 -237 2 -20 6 -40 10 -44 4
-4 2 -13 -3 -19 -7 -9 -7 -21 0 -39 6 -18 6 -26 -1 -26 -6 0 -7 -5 -3 -12 9
-14 8 -113 0 -127 -4 -5 -2 -13 4 -16 7 -4 7 -11 2 -18 -5 -7 -9 -34 -8 -60 1
-27 -1 -50 -5 -52 -4 -3 -5 -18 -4 -35 1 -16 0 -30 -4 -30 -3 0 -7 -12 -7 -27
-1 -16 -4 -41 -8 -58 -3 -16 -9 -46 -12 -65 -3 -19 -10 -43 -15 -53 -5 -9 -7
-17 -5 -17 3 0 1 -12 -5 -27 -6 -16 -12 -35 -14 -44 -7 -35 -40 -124 -48 -130
-5 -3 -9 -10 -9 -15 -1 -5 -5 -22 -11 -39 -6 -16 -9 -32 -8 -34 1 -2 -2 -7 -9
-11 -6 -4 -12 -17 -13 -28 -1 -12 -4 -22 -8 -22 -4 0 -18 -21 -31 -47 -13 -27
-29 -54 -35 -61 -7 -7 -13 -20 -13 -28 0 -8 -4 -14 -10 -14 -5 0 -10 -6 -10
-13 0 -7 -8 -22 -18 -33 -10 -10 -19 -22 -20 -27 -1 -4 -6 -13 -12 -20 -5 -6
-39 -49 -75 -94 -62 -78 -225 -253 -225 -241 0 3 -20 -13 -44 -36 -49 -45
-103 -89 -119 -95 -10 -4 -39 -26 -63 -49 -7 -7 -17 -13 -21 -14 -4 0 -25 -12
-46 -25 -21 -13 -49 -29 -63 -35 -13 -6 -24 -16 -24 -21 0 -6 -3 -7 -6 -4 -4
4 -19 -2 -33 -12 -14 -10 -30 -20 -36 -21 -5 -2 -47 -20 -93 -42 -46 -21 -88
-36 -93 -33 -5 4 -9 1 -9 -4 0 -6 -7 -11 -15 -11 -8 0 -15 -4 -15 -8 0 -4 -8
-8 -17 -9 -24 -2 -46 -7 -58 -14 -5 -4 -23 -10 -40 -14 -16 -5 -32 -9 -35 -10
-43 -13 -90 -25 -110 -29 -14 -2 -25 -5 -25 -7 0 -2 -34 -8 -71 -13 -11 -1
-24 -5 -30 -7 -5 -3 -27 -7 -49 -8 -22 -2 -44 -6 -50 -9 -10 -6 -34 -9 -141
-15 -33 -2 -65 -6 -70 -8 -14 -8 -338 -4 -351 4 -6 4 -14 3 -18 -3 -4 -6 -11
-7 -17 -4 -5 4 -33 9 -62 11 -52 5 -91 10 -91 13 0 1 -9 3 -20 4 -31 4 -118
19 -135 23 -14 4 -38 8 -65 12 -5 1 -4 5 4 10 7 5 48 7 90 5 151 -9 181 -9
181 0 0 5 6 3 13 -3 8 -6 17 -8 20 -5 3 4 28 8 54 10 61 4 142 15 218 29 56
11 60 12 75 18 8 3 29 9 45 13 28 7 36 9 68 17 6 2 26 10 42 17 17 7 38 12 48
12 9 0 17 4 17 9 0 6 4 8 9 4 5 -3 15 0 23 7 7 7 18 14 23 15 26 4 40 8 45 13
3 3 30 18 60 34 97 50 167 94 193 121 10 9 17 14 17 11 0 -10 131 116 173 166
54 63 97 123 97 134 0 6 7 17 15 24 8 7 15 21 15 31 0 11 4 19 9 19 9 0 51
108 51 134 0 9 3 16 8 16 4 0 8 16 10 36 1 20 5 41 9 48 10 15 12 228 3 241
-4 6 -7 25 -7 43 0 19 -4 37 -9 40 -5 4 -10 20 -12 36 -2 16 -11 40 -20 54 -9
14 -15 26 -12 27 8 1 -32 85 -42 85 -4 0 -8 6 -8 13 0 7 -9 23 -20 35 -11 12
-20 24 -20 27 0 4 -21 28 -47 53 -112 110 -252 188 -350 195 -13 1 -23 4 -23
7 0 5 -159 5 -170 0 -3 -1 -16 -3 -30 -5 -48 -5 -81 -14 -110 -29 -17 -8 -28
-11 -25 -6 3 5 -46 -20 -109 -54 -63 -35 -117 -61 -121 -58 -3 3 -5 1 -5 -5 0
-11 -122 -47 -190 -57 -59 -8 -156 -10 -168 -2 -7 4 -12 2 -12 -4 0 -8 -7 -9
-17 -5 -10 4 -31 9 -48 12 -31 4 -55 9 -102 19 -15 3 -33 10 -40 16 -7 6 -13
7 -13 4 0 -4 -10 -1 -22 6 -13 7 -26 11 -31 10 -4 -1 -7 2 -7 8 0 5 -8 10 -19
10 -10 0 -30 9 -44 20 -14 11 -29 20 -35 20 -5 0 -17 9 -27 20 -10 11 -21 17
-26 14 -5 -2 -14 4 -21 16 -7 11 -19 20 -26 20 -7 0 -15 7 -18 15 -4 8 -9 13
-13 12 -8 -5 -89 81 -83 88 3 3 -2 5 -11 5 -8 0 -18 9 -22 19 -3 11 -12 22
-20 25 -8 3 -15 12 -15 20 0 8 -4 16 -8 18 -16 6 -82 108 -127 195 -16 32 -34
61 -40 65 -5 4 -6 8 -2 8 5 0 2 12 -6 28 -7 15 -21 42 -30 60 -10 19 -15 38
-11 43 3 5 0 9 -6 9 -6 0 -9 4 -5 9 3 5 1 12 -4 15 -8 5 -25 63 -22 79 0 4 -4
7 -10 7 -6 0 -9 7 -6 15 4 8 2 17 -4 21 -6 3 -8 12 -5 20 3 7 0 16 -5 20 -6 3
-9 15 -6 25 3 11 2 19 -3 19 -4 0 -11 7 -14 16 -4 10 -2 13 7 8 9 -6 9 -5 0 8
-7 8 -10 18 -6 21 3 4 2 7 -3 7 -5 0 -10 11 -11 25 -4 47 -6 55 -16 55 -5 0
-4 6 2 14 9 10 9 16 1 21 -6 4 -9 13 -6 21 3 8 2 14 -3 14 -5 0 -7 11 -6 25 2
14 0 25 -3 25 -7 0 -10 29 -15 137 -1 24 -4 43 -7 43 -3 0 -5 17 -4 37 0 21
-1 42 -4 47 -2 4 -6 44 -8 89 -2 44 -7 84 -11 88 -11 11 -9 -623 2 -640 5 -8
4 -12 -1 -8 -5 3 -9 -25 -9 -64 0 -39 4 -69 10 -69 7 0 7 -3 0 -8 -12 -9 -14
-92 -2 -92 4 0 5 -5 2 -11 -11 -17 -13 -59 -3 -59 5 0 6 -6 1 -12 -6 -11 -9
-154 -3 -183 1 -5 2 -14 1 -20 -5 -27 -5 -175 0 -175 7 0 2 -68 -7 -82 -4 -6
-3 -9 2 -6 5 4 10 -30 11 -75 2 -127 5 -157 16 -150 6 4 7 1 2 -7 -11 -17 -13
-60 -4 -60 4 0 6 -14 5 -30 -1 -17 1 -30 5 -30 4 0 7 -12 5 -28 -1 -15 2 -33
7 -40 5 -7 7 -15 4 -18 -2 -3 1 -28 9 -56 7 -28 11 -55 8 -60 -3 -4 0 -8 6 -8
7 0 10 -6 7 -12 -2 -7 2 -30 9 -51 7 -20 13 -39 14 -42 0 -3 1 -7 1 -10 1 -3
3 -9 4 -15 1 -5 3 -11 5 -12 2 -4 11 -41 12 -55 1 -7 5 -13 10 -13 4 0 7 -3 7
-7 -3 -18 14 -73 23 -73 5 0 7 -4 4 -8 -3 -5 2 -22 10 -38 9 -16 17 -36 19
-44 2 -8 19 -49 39 -91 20 -42 36 -82 36 -88 0 -6 4 -11 8 -11 9 0 57 -91 54
-102 -1 -5 3 -8 8 -8 6 0 10 -7 10 -15 0 -8 5 -15 10 -15 6 0 10 -9 10 -20 0
-11 7 -20 15 -20 8 0 14 -3 13 -7 -2 -13 21 -63 29 -63 5 0 17 -16 27 -35 11
-19 23 -35 28 -35 4 0 8 -7 8 -15 0 -7 8 -19 17 -24 10 -6 14 -11 10 -11 -4 0
2 -10 13 -23 12 -12 31 -35 43 -51 12 -16 39 -47 60 -68 20 -22 37 -42 37 -44
0 -3 14 -18 30 -34 17 -16 30 -35 30 -42 0 -9 3 -9 10 2 6 10 10 11 10 3 0
-18 41 -63 52 -57 4 3 8 -2 8 -11 0 -9 9 -19 20 -22 11 -3 17 -9 14 -14 -3 -5
-1 -9 3 -9 5 0 29 -18 53 -41 25 -22 65 -55 90 -72 25 -17 50 -38 57 -46 7 -9
13 -12 13 -7 0 5 8 0 18 -10 9 -11 29 -25 45 -33 15 -8 27 -18 27 -23 0 -4 7
-8 15 -8 7 0 19 -8 24 -17 6 -10 11 -15 11 -11 0 4 30 -12 68 -36 37 -24 101
-61 142 -82 41 -21 77 -42 80 -45 8 -9 90 -39 90 -33 0 3 7 -1 15 -10 9 -8 40
-23 70 -32 30 -10 55 -21 55 -26 0 -4 11 -8 25 -8 14 0 25 -4 25 -8 0 -5 6 -9
13 -9 18 -1 41 -7 47 -13 4 -5 61 -22 112 -34 9 -3 26 -10 37 -16 12 -6 21 -9
21 -6 0 3 19 -1 43 -7 23 -7 49 -12 57 -12 8 0 17 -2 20 -6 3 -4 23 -9 45 -12
22 -4 61 -10 88 -15 26 -5 47 -7 47 -4 0 2 7 -1 15 -8 12 -10 15 -10 15 1 0 9
3 10 8 4 9 -12 19 -14 82 -17 27 -1 50 -6 50 -10 0 -4 11 -3 25 2 13 5 27 5
29 1 8 -12 491 -3 491 9 0 1 16 3 35 5 19 2 51 7 70 10 19 4 42 7 50 7 8 0 20
4 25 8 6 4 20 6 33 5 12 -1 22 2 22 7 0 5 4 6 10 3 5 -3 18 -1 29 5 11 5 35
12 53 14 18 3 34 6 36 7 1 1 5 2 10 3 4 1 13 5 20 9 6 5 17 5 22 2 6 -3 10 -2
10 3 0 5 6 9 13 9 6 0 44 11 82 24 39 13 73 22 78 21 4 -1 7 3 7 8 0 6 7 10
15 10 15 0 60 19 165 68 30 15 61 26 68 25 6 0 12 3 12 7 0 10 80 52 80 42 0
-4 5 1 11 11 6 9 14 15 20 12 5 -4 9 -1 9 4 0 6 6 11 13 11 8 0 24 9 37 20 13
11 29 20 37 20 7 0 13 5 13 10 0 6 7 10 15 10 8 0 15 4 15 8 0 5 11 14 24 20
21 9 163 108 176 122 3 3 19 16 35 29 87 66 228 201 315 301 30 34 60 68 65
74 6 6 34 43 63 81 28 39 58 77 67 86 8 9 15 20 15 25 0 6 9 20 20 32 12 12
18 22 15 22 -4 0 1 7 9 16 9 8 16 22 16 30 0 8 4 14 9 14 5 0 17 17 26 37 10
20 30 58 45 83 15 26 31 58 35 71 4 13 11 26 14 29 8 6 91 203 96 229 2 9 17
55 34 104 16 48 28 87 26 87 -3 0 0 12 6 27 6 15 16 59 24 98 8 38 16 79 18
90 9 39 20 110 22 135 23 264 23 425 1 570 -2 14 -7 49 -11 79 -3 30 -9 63
-11 75 -2 12 -7 35 -9 51 -3 17 -8 38 -11 47 -3 9 -6 25 -8 35 -13 66 -78 269
-122 378 -57 143 -230 462 -256 473 -4 2 -8 10 -8 17 0 8 -8 19 -17 24 -10 6
-14 11 -10 11 8 0 -1 13 -36 51 -9 10 -17 22 -17 27 0 4 -13 21 -28 38 -15 17
-45 53 -67 80 -48 58 -169 187 -209 223 -16 14 -43 40 -61 56 -18 17 -41 37
-51 45 -90 72 -119 96 -122 103 -2 4 -10 7 -18 7 -8 0 -14 3 -14 8 0 4 -25 23
-55 42 -30 19 -54 38 -55 43 0 4 -4 7 -10 7 -8 0 -94 52 -151 92 -10 6 -20 10
-24 9 -4 -2 -11 1 -14 6 -10 15 -268 142 -275 136 -3 -4 -6 -1 -6 5 0 7 -3 11
-7 10 -5 -1 -30 8 -57 20 -27 12 -53 22 -57 22 -5 0 -17 4 -27 9 -23 13 -55
25 -67 26 -5 0 -17 5 -25 10 -8 5 -19 10 -25 11 -11 2 -142 43 -165 51 -8 3
-24 8 -35 10 -11 2 -31 8 -45 13 -14 5 -34 11 -45 13 -11 2 -27 7 -35 10 -8 3
-28 8 -45 11 -16 3 -73 15 -125 26 -52 11 -108 23 -125 26 -16 2 -55 9 -85 14
-30 5 -73 12 -95 15 -23 3 -52 8 -65 10 -14 3 -51 7 -82 10 -31 3 -74 7 -95
10 -21 3 -76 7 -123 11 -47 3 -103 8 -125 10 -77 9 -1835 12 -1835 3z"/>
<path d="M90 4109 c0 -5 5 -7 10 -4 6 3 10 8 10 11 0 2 -4 4 -10 4 -5 0 -10
-5 -10 -11z"/>
</g>
</svg>
