<svg version="1.0" xmlns="http://www.w3.org/2000/svg" width="732" height="732" viewBox="0 0 549 549"><path d="M21.6 6.9c-.2.3 2.3.7 5.5.8 3.2.1 5.9-.1 5.9-.5 0-.9-10.9-1.2-11.4-.3zM34 7.1c0 .4.5 1.1 1.2 1.5.7.5.8.3.3-.6-.6-1-.4-1.1.6-.4.8.5 2.3.9 3.4 1 5 .3 18.3 1.5 21 1.9 1.7.3 5.5.7 8.5.9 3 .3 6.9.7 8.5 1 1.7.3 5.5.8 8.5 1 3 .3 6.4.7 7.5.9 1.1.3 4.5.8 7.5 1.2 3 .5 6.2.9 7 1.1.8.1 3.8.5 6.5.8 2.8.4 5.8.9 6.7 1.2 2 .6 5.1 1.2 9.7 2 1.8.3 4.3.8 5.5 1 1.1.3 3 .7 4.1.9 1.1.3 3.1.7 4.5 1.1 1.4.3 3.4.7 4.5.9 1.1.2 5.2 1.3 9 2.5 3.9 1.1 7.7 2.2 8.5 2.4 2.6.4 7.5 1.9 8.5 2.5.6.3 2 .7 3.3.9 1.2.1 3.3.7 4.5 1.1 1.2.5 2.5.9 2.9 1 .4.1 2.3.8 4.3 1.7 1.9.8 3.5 1.1 3.5.7 0-.5.4-.3.8.2.4.6 3.9 2.1 7.7 3.5 3.9 1.3 8.1 3 9.5 3.7 1.4.7 2.8 1.3 3.2 1.3 1.1 0 28.8 13.8 32.3 16 1.7 1.1 3.7 2.3 4.5 2.7.8.3 3.4 1.9 5.7 3.5 2.3 1.5 4.4 2.8 4.8 2.8.3 0 1.5.9 2.7 2 1.2 1.1 2.8 2 3.5 2 .7 0 1.3.4 1.3 1 0 .5 1.2 1.6 2.8 2.4 1.5.8 3.7 2.4 5 3.6 1.2 1.1 2.2 1.8 2.2 1.4 0-.4.9.3 2 1.6s2 2 2 1.6c0-.4 1.1.4 2.4 1.8 1.3 1.5 2.9 2.6 3.5 2.6.7 0 .9.4.6 1-.3.5 0 1 .7 1s4.6 3.2 8.5 7c4 3.9 7.7 7 8.3 7 .5 0 1 .3 1 .7 0 1.3 6.8 8.2 7.4 7.6.3-.4.6-.1.6.6 0 1.7 4.6 7.2 5.4 6.4.3-.4.6 0 .6.8s.9 2.1 2 2.9c1.1.8 2 1.8 2 2.2 0 .4.8 1.6 1.8 2.6 3.6 3.8 6.2 7.2 6.2 8.2 0 .6.5 1 1 1 .6 0 1 .7 1 1.5s.5 1.5 1 1.5c.6 0 1 .7 1 1.6 0 .8.5 1.2 1 .9.6-.3 1-.2 1 .4 0 .6 2.4 4.8 5.4 9.4 3 4.5 6 9.6 6.8 11.2.7 1.7 1.8 3.4 2.5 3.8.7.4 1.3 1.6 1.3 2.6 0 2.1 2.2 7.1 3.3 7.1.4 0 .7.7.7 1.5s.9 3 2 5c1.1 1.9 1.7 3.5 1.4 3.5-.4 0 .1 1.1 1 2.5s1.4 3 1.1 3.5c-.3.6-.1 1 .6 1s1 .3.6.6c-.3.4.1 2 .9 3.6s1.2 3.3.9 3.8c-.3.6-.2 1 .2 1 .5 0 1.5 2.1 2.2 4.7.7 2.7 1.5 5.5 1.8 6.3.4.8.5 1.9.4 2.4-.1.4.2 1.3.7 2 .5.6.8 1.9.7 2.8-.2 1 0 1.8.4 1.8s.8.6.9 1.2c.6 4.4.9 6.6 1.5 9.3 1.1 4.8 2.6 16.6 3 23.7.2 2 .6 4 1 4.4.4.4.2 1.3-.3 1.9-.7.9-.7 2.1 0 3.9.6 1.8.6 2.6-.1 2.6-.6 0-.7.5-.3 1.2.9 1.4.8 11.3 0 12.7-.4.5-.2 1.3.4 1.6.7.4.7 1.1.2 1.8-.5.7-.9 3.4-.8 6 .1 2.7-.1 5-.5 5.2-.4.3-.5 1.8-.4 3.5.1 1.6 0 3-.4 3-.3 0-.7 1.2-.7 2.7-.1 1.6-.4 4.1-.8 5.8-.3 1.6-.9 4.6-1.2 6.5-.3 1.9-1 4.3-1.5 5.3-.5.9-.7 1.7-.5 1.7.3 0 .1 1.2-.5 2.7-.6 1.6-1.2 3.5-1.4 4.4-.7 3.5-4 12.4-4.8 13-.5.3-.9 1-.9 1.5-.1.5-.5 2.2-1.1 3.9-.6 1.6-.9 3.2-.8 3.4.1.2-.2.7-.9 1.1-.6.4-1.2 1.7-1.3 2.8-.1 1.2-.4 2.2-.8 2.2s-1.8 2.1-3.1 4.7c-1.3 2.7-2.9 5.4-3.5 6.1-.7.7-1.3 2-1.3 2.8 0 .8-.4 1.4-1 1.4-.5 0-1 .6-1 1.3 0 .7-.8 2.2-1.8 3.3-1 1-1.9 2.2-2 2.7-.1.4-.6 1.3-1.2 2-.5.6-3.9 4.9-7.5 9.4-6.2 7.8-22.5 25.3-22.5 24.1 0-.3-2 1.3-4.4 3.6-4.9 4.5-10.3 8.9-11.9 9.5-1 .4-3.9 2.6-6.3 4.9-.7.7-1.7 1.3-2.1 1.4-.4 0-2.5 1.2-4.6 2.5-2.1 1.3-4.9 2.9-6.3 3.5-1.3.6-2.4 1.6-2.4 2.1 0 .6-.3.7-.6.4-.4-.4-1.9.2-3.3 1.2s-3 2-3.6 2.1c-.5.2-4.7 2-9.3 4.2-4.6 2.1-8.8 3.6-9.3 3.3-.5-.4-.9-.1-.9.4 0 .6-.7 1.1-1.5 1.1s-1.5.4-1.5.8-.8.8-1.7.9c-2.4.2-4.6.7-5.8 1.4-.5.4-2.3 1-4 1.4-1.6.5-3.2.9-3.5 1-4.3 1.3-9 2.5-11 2.9-1.4.2-2.5.5-2.5.7 0 .2-3.4.8-7.1 1.3-1.1.1-2.4.5-3 .7-.5.3-2.7.7-4.9.8-2.2.2-4.4.6-5 .9-1 .6-3.4.9-14.1 1.5-3.3.2-6.5.6-7 .8-1.4.8-33.8.4-35.1-.4-.6-.4-1.4-.3-1.8.3-.4.6-1.1.7-1.7.4-.5-.4-3.3-.9-6.2-1.1-5.2-.5-9.1-1-9.1-1.3 0-.1-.9-.3-2-.4-3.1-.4-11.8-1.9-13.5-2.3-1.4-.4-3.8-.8-6.5-1.2-.5-.1-.4-.5.4-1 .7-.5 4.8-.7 9-.5 15.1.9 18.1.9 18.1 0 0-.5.6-.3 1.3.3.8.6 1.7.8 2 .5.3-.4 2.8-.8 5.4-1 6.1-.4 14.2-1.5 21.8-2.9 5.6-1.1 6-1.2 7.5-1.8.8-.3 2.9-.9 4.5-1.3l6.8-1.7c.6-.2 2.6-1 4.2-1.7 1.7-.7 3.8-1.2 4.8-1.2.9 0 1.7-.4 1.7-.9 0-.6.4-.8.9-.4.5.3 1.5 0 2.3-.7.7-.7 1.8-1.4 2.3-1.5 2.6-.4 4-.8 4.5-1.3.3-.3 3-1.8 6-3.4 9.7-5 16.7-9.4 19.3-12.1 1-.9 1.7-1.4 1.7-1.1 0 1 13.1-11.6 17.3-16.6 5.4-6.3 9.7-12.3 9.7-13.4 0-.6.7-1.7 1.5-2.4s1.5-2.1 1.5-3.1c0-1.1.4-1.9.9-1.9.9 0 5.1-10.8 5.1-13.4 0-.9.3-1.6.8-1.6.4 0 .8-1.6 1-3.6.1-2 .5-4.1.9-4.8 1-1.5 1.2-22.8.3-24.1-.4-.6-.7-2.5-.7-4.3 0-1.9-.4-3.7-.9-4-.5-.4-1-2-1.2-3.6-.2-1.6-1.1-4-2-5.4-.9-1.4-1.5-2.6-1.2-2.7.8-.1-3.2-8.5-4.2-8.5-.4 0-.8-.6-.8-1.3 0-.7-.9-2.3-2-3.5-1.1-1.2-2-2.4-2-2.7 0-.4-2.1-2.8-4.7-5.3-11.2-11-25.2-18.8-35-19.5-1.3-.1-2.3-.4-2.3-.7 0-.5-15.9-.5-17 0-.3.1-1.6.3-3 .5-4.8.5-8.1 1.4-11 2.9-1.7.8-2.8 1.1-2.5.6.3-.5-4.6 2-10.9 5.4-6.3 3.5-11.7 6.1-12.1 5.8-.3-.3-.5-.1-.5.5 0 1.1-12.2 4.7-19 5.7-5.9.8-15.6 1-16.8.2-.7-.4-1.2-.2-1.2.4 0 .8-.7.9-1.7.5s-3.1-.9-4.8-1.2c-3.1-.4-5.5-.9-10.2-1.9-1.5-.3-3.3-1-4-1.6-.7-.6-1.3-.7-1.3-.4 0 .4-1 .1-2.2-.6-1.3-.7-2.6-1.1-3.1-1-.4.1-.7-.2-.7-.8 0-.5-.8-1-1.9-1-1 0-3-.9-4.4-2-1.4-1.1-2.9-2-3.5-2-.5 0-1.7-.9-2.7-2-1-1.1-2.1-1.7-2.6-1.4-.5.2-1.4-.4-2.1-1.6-.7-1.1-1.9-2-2.6-2-.7 0-1.5-.7-1.8-1.5-.4-.8-.9-1.3-1.3-1.2-.8.5-8.9-8.1-8.3-8.8.3-.3-.2-.5-1.1-.5-.8 0-1.8-.9-2.2-1.9-.3-1.1-1.2-2.2-2-2.5-.8-.3-1.5-1.2-1.5-2s-.4-1.6-.8-1.8c-1.6-.6-8.2-10.8-12.7-19.5-1.6-3.2-3.4-6.1-4-6.5-.5-.4-.6-.8-.2-.8.5 0 .2-1.2-.6-2.8-.7-1.5-2.1-4.2-3-6-1-1.9-1.5-3.8-1.1-4.3.3-.5 0-.9-.6-.9s-.9-.4-.5-.9c.3-.5.1-1.2-.4-1.5-.8-.5-2.5-6.3-2.2-7.9 0-.4-.4-.7-1-.7s-.9-.7-.6-1.5c.4-.8.2-1.7-.4-2.1-.6-.3-.8-1.2-.5-2 .3-.7 0-1.6-.5-2-.6-.3-.9-1.5-.6-2.5.3-1.1.2-1.9-.3-1.9-.4 0-1.1-.7-1.4-1.6-.4-1-.2-1.3.7-.8.9.6.9.5 0-.8-.7-.8-1-1.8-.6-2.1.3-.4.2-.7-.3-.7s-1-1.1-1.1-2.5c-.4-4.7-.6-5.5-1.6-5.5-.5 0-.4-.6.2-1.4.9-1 .9-1.6.1-2.1-.6-.4-.9-1.3-.6-2.1.3-.8.2-1.4-.3-1.4s-.7-1.1-.6-2.5c.2-1.4 0-2.5-.3-2.5-.7 0-1-2.9-1.5-13.7-.1-2.4-.4-4.3-.7-4.3-.3 0-.5-1.7-.4-3.7 0-2.1-.1-4.2-.4-4.7-.2-.4-.6-4.4-.8-8.9-.2-4.4-.7-8.4-1.1-8.8-1.1-1.1-.9 62.3.2 64 .5.8.4 1.2-.1.8-.5-.3-.9 2.5-.9 6.4 0 3.9.4 6.9 1 6.9.7 0 .7.3 0 .8-1.2.9-1.4 9.2-.2 9.2.4 0 .5.5.2 1.1-1.1 1.7-1.3 5.9-.3 5.9.5 0 .6.6.1 1.2-.6 1.1-.9 15.4-.3 18.3.1.5.2 1.4.1 2-.5 2.7-.5 17.5 0 17.5.7 0 .2 6.8-.7 8.2-.4.6-.3.9.2.6.5-.4 1 3 1.1 7.5.2 12.7.5 15.7 1.6 15 .6-.4.7-.1.2.7-1.1 1.7-1.3 6-.4 6 .4 0 .6 1.4.5 3-.1 1.7.1 3 .5 3s.7 1.2.5 2.8c-.1 1.5.2 3.3.7 4 .5.7.7 1.5.4 1.8-.2.3.1 2.8.9 5.6.7 2.8 1.1 5.5.8 6-.3.4 0 .8.6.8.7 0 1 .6.7 1.2-.2.7.2 3 .9 5.1.7 2 1.3 3.9 1.4 4.2 0 .3.1.7.1 1 .1.3.3.9.4 1.5.1.5.3 1.1.5 1.2.2.4 1.1 4.1 1.2 5.5.1.7.5 1.3 1 1.3.4 0 .7.3.7.7-.3 1.8 1.4 7.3 2.3 7.3.5 0 .7.4.4.8-.3.5.2 2.2 1 3.8.9 1.6 1.7 3.6 1.9 4.4.2.8 1.9 4.9 3.9 9.1 2 4.2 3.6 8.2 3.6 8.8 0 .6.4 1.1.8 1.1.9 0 5.7 9.1 5.4 10.2-.1.5.3.8.8.8.6 0 1 .7 1 1.5s.5 1.5 1 1.5c.6 0 1 .9 1 2s.7 2 1.5 2 1.4.3 1.3.7c-.2 1.3 2.1 6.3 2.9 6.3.5 0 1.7 1.6 2.7 3.5 1.1 1.9 2.3 3.5 2.8 3.5.4 0 .8.7.8 1.5 0 .7.8 1.9 1.7 2.4 1 .6 1.4 1.1 1 1.1-.4 0 .2 1 1.3 2.3 1.2 1.2 3.1 3.5 4.3 5.1 1.2 1.6 3.9 4.7 6 6.8 2 2.2 3.7 4.2 3.7 4.4 0 .3 1.4 1.8 3 3.4 1.7 1.6 3 3.5 3 4.2 0 .9.3.9 1-.2.6-1 1-1.1 1-.3 0 1.8 4.1 6.3 5.2 5.7.4-.3.8.2.8 1.1 0 .9.9 1.9 2 2.2 1.1.3 1.7.9 1.4 1.4-.3.5-.1.9.3.9.5 0 2.9 1.8 5.3 4.1 2.5 2.2 6.5 5.5 9 7.2 2.5 1.7 5 3.8 5.7 4.6.7.9 1.3 1.2 1.3.7s.8 0 1.8 1c.9 1.1 2.9 2.5 4.5 3.3 1.5.8 2.7 1.8 2.7 2.3 0 .4.7.8 1.5.8.7 0 1.9.8 2.4 1.7.6 1 1.1 1.5 1.1 1.1 0-.4 3 1.2 6.8 3.6 3.7 2.4 10.1 6.1 14.2 8.2 4.1 2.1 7.7 4.2 8 4.5.8.9 9 3.9 9 3.3 0-.3.7.1 1.5 1 .9.8 4 2.3 7 3.2 3 1 5.5 2.1 5.5 2.6 0 .4 1.1.8 2.5.8s2.5.4 2.5.8c0 .5.6.9 1.3.9 1.8.1 4.1.7 4.7 1.3.4.5 6.1 2.2 11.2 3.4.9.3 2.6 1 3.7 1.6 1.2.6 2.1.9 2.1.6 0-.3 1.9.1 4.3.7 2.3.7 4.9 1.2 5.7 1.2.8 0 1.7.2 2 .6.3.4 2.3.9 4.5 1.2 2.2.4 6.1 1 8.8 1.5 2.6.5 4.7.7 4.7.4 0-.2.7.1 1.5.8 1.2 1 1.5 1 1.5-.1 0-.9.3-1 .8-.4.9 1.2 1.9 1.4 8.2 1.7 2.7.1 5 .6 5 1s1.1.3 2.5-.2c1.3-.5 2.7-.5 2.9-.1.8 1.2 49.1.3 49.1-.9 0-.1 1.6-.3 3.5-.5s5.1-.7 7-1c1.9-.4 4.2-.7 5-.7.8 0 2-.4 2.5-.8.6-.4 2-.6 3.3-.5 1.2.1 2.2-.2 2.2-.7 0-.5.4-.6 1-.3.5.3 1.8.1 2.9-.5 1.1-.5 3.5-1.2 5.3-1.4 1.8-.3 3.4-.6 3.6-.7.1-.1.5-.2 1-.3.4-.1 1.3-.5 2-.9.6-.5 1.7-.5 2.2-.2.6.3 1 .2 1-.3s.6-.9 1.3-.9c.6 0 4.4-1.1 8.2-2.4 3.9-1.3 7.3-2.2 7.8-2.1.4.1.7-.3.7-.8 0-.6.7-1 1.5-1 1.5 0 6-1.9 16.5-6.8 3-1.5 6.1-2.6 6.8-2.5.6 0 1.2-.3 1.2-.7 0-1 8-5.2 8-4.2 0 .4.5-.1 1.1-1.1.6-.9 1.4-1.5 2-1.2.5.4.9.1.9-.4 0-.6.6-1.1 1.3-1.1.8 0 2.4-.9 3.7-2 1.3-1.1 2.9-2 3.7-2 .7 0 1.3-.5 1.3-1 0-.6.7-1 1.5-1s1.5-.4 1.5-.8c0-.5 1.1-1.4 2.4-2 2.1-.9 16.3-10.8 17.6-12.2.3-.3 1.9-1.6 3.5-2.9 8.7-6.6 22.8-20.1 31.5-30.1 3-3.4 6-6.8 6.5-7.4.6-.6 3.4-4.3 6.3-8.1 2.8-3.9 5.8-7.7 6.7-8.6.8-.9 1.5-2 1.5-2.5 0-.6.9-2 2-3.2 1.2-1.2 1.8-2.2 1.5-2.2-.4 0 .1-.7.9-1.6.9-.8 1.6-2.2 1.6-3 0-.8.4-1.4.9-1.4s1.7-1.7 2.6-3.7c1-2 3-5.8 4.5-8.3 1.5-2.6 3.1-5.8 3.5-7.1.4-1.3 1.1-2.6 1.4-2.9.8-.6 9.1-20.3 9.6-22.9.2-.9 1.7-5.5 3.4-10.4 1.6-4.8 2.8-8.7 2.6-8.7-.3 0 0-1.2.6-2.7.6-1.5 1.6-5.9 2.4-9.8.8-3.8 1.6-7.9 1.8-9 .9-3.9 2-11 2.2-13.5 2.3-26.4 2.3-42.5.1-57-.2-1.4-.7-4.9-1.1-7.9-.3-3-.9-6.3-1.1-7.5-.2-1.2-.7-3.5-.9-5.1-.3-1.7-.8-3.8-1.1-4.7-.3-.9-.6-2.5-.8-3.5-1.3-6.6-7.8-26.9-12.2-37.8-5.7-14.3-23-46.2-25.6-47.3-.4-.2-.8-1-.8-1.7 0-.8-.8-1.9-1.7-2.4-1-.6-1.4-1.1-1-1.1.8 0-.1-1.3-3.6-5.1-.9-1-1.7-2.2-1.7-2.7 0-.4-1.3-2.1-2.8-3.8-1.5-1.7-4.5-5.3-6.7-8-4.8-5.8-16.9-18.7-20.9-22.3-1.6-1.4-4.3-4-6.1-5.6-1.8-1.7-4.1-3.7-5.1-4.5-9-7.2-11.9-9.6-12.2-10.3-.2-.4-1-.7-1.8-.7s-1.4-.3-1.4-.8c0-.4-2.5-2.3-5.5-4.2-3-1.9-5.4-3.8-5.5-4.3 0-.4-.4-.7-1-.7-.8 0-9.4-5.2-15.1-9.2-1-.6-2-1-2.4-.9-.4.2-1.1-.1-1.4-.6-1-1.5-26.8-14.2-27.5-13.6-.3.4-.6.1-.6-.5 0-.7-.3-1.1-.7-1-.5.1-3-.8-5.7-2s-5.3-2.2-5.7-2.2c-.5 0-1.7-.4-2.7-.9-2.3-1.3-5.5-2.5-6.7-2.6-.5 0-1.7-.5-2.5-1s-1.9-1-2.5-1.1c-1.1-.2-14.2-4.3-16.5-5.1-.8-.3-2.4-.8-3.5-1-1.1-.2-3.1-.8-4.5-1.3s-3.4-1.1-4.5-1.3c-1.1-.2-2.7-.7-3.5-1-.8-.3-2.8-.8-4.5-1.1-1.6-.3-7.3-1.5-12.5-2.6s-10.8-2.3-12.5-2.6c-1.6-.2-5.5-.9-8.5-1.4-3-.5-7.3-1.2-9.5-1.5-2.3-.3-5.2-.8-6.5-1-1.4-.3-5.1-.7-8.2-1-3.1-.3-7.4-.7-9.5-1-2.1-.3-7.6-.7-12.3-1.1-4.7-.3-10.3-.8-12.5-1C209.8 6.5 34 6.2 34 7.1z"/><path d="M9 138.1c0 .5.5.7 1 .4.6-.3 1-.8 1-1.1 0-.2-.4-.4-1-.4-.5 0-1 .5-1 1.1z"/></svg>